<?xml version="1.0" standalone="no"?>
<!DOCTYPE svg PUBLIC "-//W3C//DTD SVG 20010904//EN"
 "http://www.w3.org/TR/2001/REC-SVG-20010904/DTD/svg10.dtd">
<svg version="1.0" xmlns="http://www.w3.org/2000/svg"
 width="1024.000000pt" height="1024.000000pt" viewBox="0 0 1024.000000 1024.000000"
 preserveAspectRatio="xMidYMid meet">

<g transform="translate(0.000000,1024.000000) scale(0.100000,-0.100000)"
fill="#000000" stroke="none">
<path d="M5315 7988 c-27 -15 -84 -69 -98 -93 -9 -15 -13 -323 -17 -1187 -3
-641 -7 -1169 -10 -1171 -3 -3 -34 1 -70 10 -91 21 -215 13 -302 -20 -280
-107 -448 -328 -448 -587 1 -273 142 -498 371 -591 143 -58 302 -73 431 -40
136 35 292 130 328 200 10 20 30 48 44 64 33 36 91 156 110 232 21 79 20 250
-1 335 -14 57 -17 167 -20 875 -2 446 0 910 4 1031 l8 222 157 -73 c180 -84
279 -146 339 -213 99 -111 138 -211 139 -347 0 -104 -8 -140 -57 -249 -32 -71
-34 -82 -25 -115 6 -20 24 -52 40 -71 28 -33 30 -34 68 -22 63 19 174 110 221
181 22 34 48 68 56 74 19 15 84 179 103 262 29 122 -4 316 -78 458 -116 224
-250 336 -675 566 -120 65 -263 146 -318 180 -150 93 -244 120 -300 89z"/>
<path d="M4895 7368 c-234 -44 -415 -101 -624 -197 -544 -247 -946 -663 -1186
-1225 -119 -281 -185 -649 -172 -960 3 -78 9 -151 13 -163 l6 -22 67 33 c84
42 308 130 386 151 l61 17 -4 64 c-14 211 80 607 190 804 154 275 255 395 503
597 188 153 492 288 750 332 l100 17 0 52 c-1 29 -2 156 -3 282 -2 259 7 236
-87 218z"/>
<path d="M5860 6902 c0 -12 19 -26 26 -19 2 2 -2 10 -11 17 -9 8 -15 8 -15 2z"/>
<path d="M4359 6333 c-9 -2 -30 -21 -47 -42 -17 -22 -52 -49 -77 -61 -55 -26
-62 -40 -45 -81 12 -28 16 -30 49 -25 93 13 86 17 89 -44 1 -30 -1 -93 -5
-140 -7 -79 -10 -86 -35 -98 -34 -16 -35 -24 -4 -55 21 -21 36 -25 127 -30 57
-3 108 -2 112 3 5 4 -4 34 -19 66 l-27 57 6 229 7 228 -58 -1 c-31 -1 -64 -3
-73 -6z"/>
<path d="M7040 6239 c-179 -71 -313 -118 -387 -138 -28 -8 -69 -35 -124 -82
-95 -83 -165 -119 -229 -119 -57 0 -120 -17 -245 -67 -55 -22 -123 -48 -152
-57 l-52 -17 5 -132 c5 -134 11 -197 19 -197 3 0 123 48 267 106 145 59 340
137 433 174 94 37 271 108 395 157 124 50 254 100 290 112 96 32 95 30 81 87
-9 37 -117 247 -125 243 0 0 -80 -31 -176 -70z"/>
<path d="M7355 5762 c-44 -16 -141 -54 -215 -84 -74 -31 -202 -83 -285 -116
-82 -33 -289 -116 -460 -185 -307 -123 -453 -177 -482 -177 -12 0 -13 -9 -6
-52 4 -29 8 -110 8 -180 0 -71 0 -128 1 -128 0 0 79 32 175 71 96 39 208 84
249 100 41 17 156 63 255 104 297 120 785 312 860 337 l70 23 -3 40 c-10 113
-56 275 -79 275 -4 0 -44 -13 -88 -28z"/>
<path d="M7490 5214 c-30 -8 -296 -111 -590 -229 -880 -351 -933 -372 -990
-385 -66 -15 -77 -23 -85 -61 -11 -48 -98 -170 -169 -237 -110 -102 -360 -214
-556 -248 -104 -18 -203 -9 -307 28 l-62 21 -78 -36 c-43 -19 -161 -69 -263
-110 -102 -41 -246 -100 -320 -130 -74 -31 -200 -81 -280 -113 -218 -85 -300
-129 -300 -160 0 -15 174 -200 202 -215 16 -8 52 4 176 59 181 80 354 154 497
210 55 22 172 70 260 107 88 37 212 87 275 110 63 23 183 69 265 102 83 33
186 73 230 90 44 17 161 68 260 113 169 77 572 246 875 367 74 29 198 79 275
110 77 31 176 69 220 85 44 16 121 45 170 65 50 19 148 55 220 78 127 42 130
44 138 77 11 47 12 297 1 307 -5 5 -33 3 -64 -5z"/>
<path d="M4065 4984 c-33 -14 -116 -43 -185 -66 -69 -22 -145 -50 -170 -61
-25 -10 -124 -47 -220 -82 -201 -72 -424 -164 -487 -201 -34 -20 -43 -30 -43
-53 0 -37 24 -114 60 -194 l30 -67 77 29 c165 62 377 144 598 232 127 50 276
107 333 127 99 35 103 38 97 62 -4 14 -9 87 -12 163 -3 75 -8 137 -12 137 -3
-1 -33 -12 -66 -26z"/>
<path d="M7276 4534 c-186 -79 -389 -154 -419 -154 -7 0 -31 -38 -54 -84 -112
-226 -266 -417 -468 -579 -163 -131 -266 -192 -456 -267 -329 -131 -620 -152
-1023 -74 -72 14 -160 37 -194 51 l-64 25 -66 -30 c-37 -17 -149 -65 -250
-106 -196 -80 -315 -141 -310 -158 6 -16 188 -111 318 -167 198 -84 413 -142
675 -183 122 -18 438 -16 570 6 151 24 332 69 472 117 191 65 517 244 668 366
61 49 229 220 284 288 99 123 212 277 231 316 11 20 33 58 50 82 16 25 30 49
30 53 0 5 16 36 36 69 71 118 210 515 181 515 -7 0 -102 -39 -211 -86z"/>
<path d="M4248 4474 c-3 -3 -39 -18 -79 -33 -41 -16 -157 -62 -259 -103 -102
-42 -239 -95 -305 -118 -136 -47 -390 -154 -420 -176 -17 -13 -18 -18 -7 -46
19 -50 74 -137 118 -186 l40 -45 90 41 c49 22 150 63 224 91 142 52 635 247
827 327 2 0 -32 36 -75 80 -42 44 -88 101 -102 127 -23 43 -38 55 -52 41z"/>
</g>
</svg>
